<?xml version="1.0" encoding="utf-8"?>
<!-- Generator: Adobe Illustrator 24.0.0, SVG Export Plug-In . SVG Version: 6.00 Build 0)  -->
<svg version="1.1" id="Capa_1" xmlns="http://www.w3.org/2000/svg" xmlns:xlink="http://www.w3.org/1999/xlink" x="0px" y="0px"
	 viewBox="0 0 1280 1024" style="enable-background:new 0 0 1280 1024;" xml:space="preserve">
<style type="text/css">
	.st0{fill:#FFFFFF;}
	.st1{fill:url(#SVGID_1_);}
	.st2{fill:url(#SVGID_2_);}
	.st3{fill:url(#SVGID_3_);}
</style>
<g>
	<g>
		<path class="st0" d="M585.67,666.53l18.5-81.71l-65.78,0.51l-15.42,66.29c0,0.34-0.35,1.54-1.03,3.6
			c-0.35,1.36-1.37,3.08-3.08,5.14c-1.03,1.71-2.57,3.25-4.63,4.63c-1.37,1.36-3.77,2.06-7.19,2.06c-3.08,0-5.32-0.69-6.68-2.06
			c-1.03-1.03-1.89-2.57-2.57-4.63c-0.35-1.37-0.51-3.08-0.51-5.14c0.34-1.03,0.51-2.06,0.51-3.08v-0.51l65.26-291.89
			c0.34-0.34,0.51-0.85,0.51-1.54c0-0.68,0.17-1.37,0.51-2.06c0.68-2.06,1.71-3.77,3.08-5.14c1.03-1.37,2.57-3.08,4.63-5.14
			c1.71-1.37,4.28-2.06,7.71-2.06c3.08,0.69,5.14,1.37,6.17,2.06c1.71,1.03,2.74,2.75,3.08,5.14c1.03,2.06,1.03,5.14,0,9.25
			l-7.19,30.83l66.29-0.51l10.28-47.28c3.08-14.39,2.91-25.35-0.51-32.89c-3.43-7.88-8.05-14.21-13.88-19.01
			c-2.06-1.37-4.11-2.65-6.17-3.85c-2.06-1.2-4.29-2.14-6.68-2.83c-2.06-0.68-4.11-1.37-6.17-2.06c-2.06-0.68-3.94-1.2-5.65-1.54
			c-2.4-0.34-4.46-0.59-6.17-0.77c-1.72-0.17-3.94-0.26-6.68-0.26h-25.18c-6.17,0-11.48,0.51-15.93,1.54
			c-2.4,0.35-4.63,0.86-6.68,1.54c-2.06,0.69-4.29,1.37-6.68,2.06c-9.94,3.77-18.16,8.91-24.67,15.42
			c-6.17,5.83-11.48,12-15.93,18.5c-1.72,3.08-3.34,6-4.88,8.74c-1.54,2.75-2.66,5.48-3.34,8.22c-1.37,4.11-2.06,6.68-2.06,7.71
			v0.51l-72.46,323.24c-3.08,14.04-2.91,25,0.51,32.89c3.77,7.88,8.57,14.04,14.39,18.5c3.77,3.42,7.89,5.82,12.33,7.19
			c4.46,1.71,8.56,2.74,12.33,3.08c4.11,1.03,8.22,1.54,12.33,1.54h25.69c1.37,0,2.65,0,3.85,0c1.2,0,2.65-0.18,4.37-0.51
			c1.71-0.35,3.25-0.6,4.63-0.77c1.36-0.18,2.91-0.43,4.63-0.77c1.71-0.69,3.51-1.37,5.4-2.06c1.88-0.69,3.85-1.37,5.91-2.06
			c2.39-0.69,4.79-1.63,7.19-2.83c2.39-1.2,4.96-2.49,7.71-3.85c5.14-2.75,10.1-6.51,14.9-11.31c4.45-4.46,8.56-10.11,12.33-16.96
			C580.7,682.47,583.61,674.76,585.67,666.53z"/>
		<path class="st0" d="M855.46,309.89c-3.77-7.53-8.4-13.7-13.88-18.5c-2.06-1.37-4.11-2.65-6.17-3.85
			c-2.06-1.2-4.29-2.14-6.68-2.83c-2.06-0.68-4.11-1.37-6.17-2.06c-2.06-0.68-3.94-1.2-5.65-1.54c-4.46-1.03-8.57-1.37-12.33-1.03
			H712.6l-82.22,366.4h65.78l23.64-103.81h25.18c3.42-0.34,6.59-0.59,9.51-0.77c2.91-0.17,5.73-0.59,8.48-1.28
			c2.74-0.68,5.48-1.45,8.22-2.31c2.74-0.85,5.65-1.97,8.74-3.34c3.42-1.37,6.68-3,9.76-4.88c3.08-1.88,5.99-4.02,8.74-6.42
			c3.08-2.39,5.91-5.05,8.48-7.97c2.57-2.91,5.22-6.25,7.97-10.02c4.79-7.19,8.39-16.1,10.79-26.72l30.83-138.24
			C858.88,328.06,858.54,317.78,855.46,309.89z M786.6,358.71l-24.15,106.38c-0.69,3.08-2.06,5.83-4.11,8.22
			c-2.06,2.06-3.6,3.26-4.63,3.6c-1.72,1.37-3.77,2.06-6.17,2.06h-13.36L764.5,343.3h13.88c2.06,0,3.77,0.69,5.14,2.06
			c1.03,1.03,2.06,2.57,3.08,4.63C787.28,352.03,787.28,354.95,786.6,358.71z"/>
		<linearGradient id="SVGID_1_" gradientUnits="userSpaceOnUse" x1="323.0488" y1="508.0933" x2="733.8456" y2="729.3728">
			<stop  offset="0" style="stop-color:#597EF4"/>
			<stop  offset="1" style="stop-color:#84FAB0"/>
		</linearGradient>
		<path class="st1" d="M602.11,687.09c-0.69,2.74-1.63,5.4-2.83,7.97c-1.2,2.57-2.49,5.05-3.85,7.45
			c-3.43,5.82-7.71,11.31-12.85,16.44c-4.11,4.11-9.08,7.88-14.9,11.31c-0.35,0-0.6,0.08-0.77,0.26c-0.18,0.17-0.43,0.26-0.77,0.26
			h259.51v-43.68H602.11z"/>
	</g>
	<g>
		<linearGradient id="SVGID_2_" gradientUnits="userSpaceOnUse" x1="656.1965" y1="212.8111" x2="974.4224" y2="608.3205">
			<stop  offset="0" style="stop-color:#597EF4"/>
			<stop  offset="1" style="stop-color:#84FAB0"/>
		</linearGradient>
		<path class="st2" d="M965.18,207.43V813.5H826.2v-41.77h87.34V249.2H826.2v-41.77H965.18z"/>
	</g>
	<g>
		<linearGradient id="SVGID_3_" gradientUnits="userSpaceOnUse" x1="272.501" y1="445.0574" x2="1135.167" y2="891.472">
			<stop  offset="0" style="stop-color:#597EF4"/>
			<stop  offset="1" style="stop-color:#84FAB0"/>
		</linearGradient>
		<path class="st3" d="M335.36,816.58V210.51h138.99v41.77h-87.34v522.53h87.34v41.77H335.36z"/>
	</g>
</g>
</svg>
